<svg xmlns="http://www.w3.org/2000/svg" xmlns:svgjs="http://svgjs.com/svgjs" xmlns:xlink="http://www.w3.org/1999/xlink" width="288" height="288"><svg xmlns="http://www.w3.org/2000/svg" width="288" height="288" viewBox="0 0 29.33 37"><g fill="none" fill-rule="evenodd"><path fill="#31a7ca" d="M14.6624483,2.02736667 C6.59555172,2.02736667 0.0296896552,8.54347778 0.000724137931,16.5632278 C-0.0282413793,18.2703667 0.644172414,25.0886444 11.5621034,35.9378667 C12.4186552,36.7878389 13.541069,37.2133389 14.6624483,37.2133389 C15.7838276,37.2133389 16.9052069,36.7878389 17.7617586,35.9378667 C28.6817586,25.0886444 29.3541724,18.2703667 29.3252069,16.5632278 C29.2962414,8.54347778 22.7293448,2.02736667 14.6624483,2.02736667 M14.6624483,6.38206111 C20.351069,6.38206111 24.9431379,10.9638944 24.9431379,16.6156444 C24.9431379,16.6156444 25.2865862,22.3043944 14.6624483,32.8586444 C4.03934483,22.3043944 4.38382759,16.6156444 4.38382759,16.6156444 C4.38382759,10.9638944 8.97589655,6.38206111 14.6624483,6.38206111" class="colorCC302E svgShape"/><path fill="#fefefe" d="M14.6624483,6.38236944 C20.351069,6.38236944 24.9431379,10.9642028 24.9431379,16.6159528 C24.9431379,16.6159528 25.2865862,22.303675 14.6624483,32.8589528 C4.03934483,22.303675 4.38382759,16.6159528 4.38382759,16.6159528 C4.38382759,10.9642028 8.97589655,6.38236944 14.6624483,6.38236944" class="colorFEFEFE svgShape"/><path fill="#31a7ca" d="M14.6633793,16.614 C16.1530345,16.614 17.3613103,15.4125278 17.3623448,13.9335556 C17.3623448,12.4463611 16.154069,11.249 14.6633793,11.249 C13.1737241,11.249 11.9664828,12.4453333 11.9664828,13.9335556 C11.9664828,15.4125278 13.1737241,16.614 14.6633793,16.614" class="colorCC302E svgShape"/></g></svg></svg>